<?xml version="1.0" encoding="utf-8"?>
<?xml-stylesheet type="text/xsl" href="rss1.xsl"?>
<rss version="2.0" xmlns:atom="http://www.w3.org/2005/Atom" xmlns:content="http://purl.org/rss/1.0/modules/content/" xmlns:dc="http://purl.org/dc/elements/1.1/" xmlns:media="http://search.yahoo.com/mrss/">
<channel>
 <title>Getty</title>
 <link>http://www.gettyimg.com/</link>
 <atom:link href="http://www.gettyimg.com/" rel="self" type="application/rss+xml" />

 
                <item>
                <title><![CDATA[【MASTER &amp; MASTER RIP】MASTER - SOOJIN - AGASSY (아가씨) [Master 4K]]]></title>
                <link><![CDATA[https://sharemania.us/threads/soojin-agassy-%EC%95%84%EA%B0%80%EC%94%A8-master-4k.232788/]]></link>
                <description><![CDATA[<article>
<blockquote class="messageText SelectQuoteContainer ugc baseHtml">
<div style="text-align: center"><img src="https://i.ibb.co/kKV9xSQ/SOOJIN-AGASSY-Master-4-K-mp4.png" class="bbCodeImage LbImage" alt="[​IMG]" data-url="https://i.ibb.co/kKV9xSQ/SOOJIN-AGASSY-Master-4-K-mp4.png" style=""><br>
<br>
<div class="ToggleTriggerAnchor bbCodeSpoilerContainer">
<button type="button" class="button bbCodeSpoilerButton ToggleTrigger Tooltip JsOnly" data-target="> .SpoilerTarget"><span>Spoiler: <span class="SpoilerTitle">Mediainfo</span></span></button>
<div class="SpoilerTarget bbCodeSpoilerText"><b>General</b><br>
Complete name : SOOJIN - AGASSY [Master 4K].mp4<br>
Format : MPEG-4<br>
Format profile : Base Media / Version 2<br>
Codec ID : mp42 (mp42/mp41)<br>
File size : 1.99 GiB<br>
Duration : 2 min 50 s<br>
Overall bit rate mode : Variable<br>
Overall bit rate : 100 Mb/s<br>
Encoded date : UTC 2023-11-06 05:21:36<br>
Tagged date : UTC 2023-11-06 05:24:56<br>
TIM : 00:00:00:00<br>
TSC : 24000<br>
TSZ : 1001<br>
<br>
<b>Video</b><br>
ID : 1<br>
Format : AVC<br>
Format/Info : Advanced Video Codec<br>
Format profile : Main@L5.2<br>
Format settings : CABAC / 4 Ref Frames<br>
Format settings, CABAC : Yes<br>
Format settings, Reference frames : 4 frames<br>
Format settings, GOP : M=4, N=23<br>
Codec ID : avc1<br>
Codec ID/Info : Advanced Video Coding<br>
Duration : 2 min 50 s<br>
Bit rate mode : Constant<br>
Bit rate : 100.0 Mb/s<br>
Width : 3 840 pixels<br>
Height : 2 160 pixels<br>
Display aspect ratio : 16:9<br>
Frame rate mode : Constant<br>
Frame rate : 23.976 (24000/1001) FPS<br>
Color space : YUV<br>
Chroma subsampling : 4:2:0<br>
Bit depth : 8 bits<br>
Scan type : Progressive<br>
Bits/(Pixel*Frame) : 0.503<br>
Stream size : 1.99 GiB (100%)<br>
Language : English<br>
Encoded date : UTC 2023-11-06 05:21:39<br>
Tagged date : UTC 2023-11-06 05:21:39<br>
Color range : Limited<br>
Color primaries : BT.709<br>
Transfer characteristics : BT.709<br>
Matrix coefficients : BT.709<br>
Codec configuration box : avcC<br>
<br>
<b>Audio</b><br>
ID : 2<br>
Format : AAC LC<br>
Format/Info : Advanced Audio Codec Low Complexity<br>
Codec ID : mp4a-40-2<br>
Duration : 2 min 50 s<br>
Source duration : 2 min 50 s<br>
Bit rate mode : Variable<br>
Bit rate : 317 kb/s<br>
Maximum bit rate : 372 kb/s<br>
Channel(s) : 2 channels<br>
Channel layout : L R<br>
Sampling rate : 48.0 kHz<br>
Frame rate : 46.875 FPS (1024 SPF)<br>
Compression mode : Lossy<br>
Stream size : 6.46 MiB (0%)<br>
Source stream size : 6.47 MiB (0%)<br>
Language : English<br>
Encoded date : UTC 2023-11-06 05:21:37<br>
Tagged date : UTC 2023-11-06 05:21:37</div>
</div><br>
<div class="bbCodeBlock bbCodeVfcHH HiddenContent">
<div class="attribution type">Hidden Content:</div>
<blockquote>You must reply before you can see the hidden data contained here.</blockquote>
</div></div>
<div class="messageTextEndMarker">&nbsp;</div>
</blockquote>
</article>]]></description>
                <author><![CDATA[von_3649]]></author>
                </item>

                
                <item>
                <title><![CDATA[【Singles (lossy)】Dolby Atmos - [REQUEST AUDIO] I WANT YOUR LOVE NILE RODGERS FEAT LADY GAGA]]></title>
                <link><![CDATA[https://sharemania.us/threads/request-audio-i-want-your-love-nile-rodgers-feat-lady-gaga.232790/]]></link>
                <description><![CDATA[<article>
<blockquote class="messageText SelectQuoteContainer ugc baseHtml">
'I WANT YOUR LOVE' NILE RODGERS FEAT LADY GAGA<br>
i would like to have it in dolby/or best quality available.<br>
thank you in advance &lt;3
<div class="messageTextEndMarker">&nbsp;</div>
</blockquote>
</article>]]></description>
                <author><![CDATA[vooques]]></author>
                </item>

                
                <item>
                <title><![CDATA[【Cinema Center】SERIES - VICTORiOUS 2010 COMPLETE [AMZN 1080p AVC CVBR DD+]]]></title>
                <link><![CDATA[https://sharemania.us/threads/victorious-2010-complete-amzn-1080p-avc-cvbr-dd.232789/]]></link>
                <description><![CDATA[<article>
<blockquote class="messageText SelectQuoteContainer ugc baseHtml">
<img src="https://www.themoviedb.org/t/p/original/jpR7mT5nFAzWSGPseLpfFisoUtN.jpg" class="bbCodeImage LbImage" alt="[​IMG]" data-url="https://www.themoviedb.org/t/p/original/jpR7mT5nFAzWSGPseLpfFisoUtN.jpg" style=""> <br>
<br>
<b>Ripped by myself from Paramount+ Channel in Amazon Prime Video.</b><br>
<br>
<b>VIDEO:</b> 1080p H264 CVBR Full HD <b>(Untouched Quality)</b><br>
<br>
<b>AUDIO:</b> English and Latin american <b>(EAC3 224kbps)</b><br>
<br>
<b>SUBTITLES:</b> None<br>
<br>
<b>NOTE:</b> <i>In the Amazon version, episode 4x09 The Bad Roommate, does not have English audio. That is why I have uploaded the episode extracted from Paramount+ that contains English audio. I have also uploaded the Netflix version of the episodes, Tori The Zombie and Freak the Freak Out.</i><br>
<br>
<b>HOST:</b> Telegram<br>
<br>
<div class="bbCodeBlock bbCodeVfcHH HiddenContent">
<div class="attribution type">Hidden Content:</div>
<blockquote>You must reply before you can see the hidden data contained here.</blockquote>
</div>
<div class="messageTextEndMarker">&nbsp;</div>
</blockquote>
</article>]]></description>
                <author><![CDATA[alrl]]></author>
                </item>

                </channel></rss>